<svg id="Layer_1" height="512" viewBox="0 0 512 512" width="512" xmlns="http://www.w3.org/2000/svg" data-name="Layer 1"><path d="m222.89 157.22-.29-.29 39.6-39.59a9.989 9.989 0 0 1 14.14 0l117.76 117.76a9.989 9.989 0 0 1 0 14.14l-39.59 39.6z" fill="#e48e66"/><path d="m354.51 288.84.12.33-96.77 34.79-30.54 30.54-69.82-69.82 30.54-30.54 34.85-96.92z" fill="#f8ec7d"/><path d="m227.32 354.5-73.36 73.36-69.82-69.82 73.36-73.36zm-46.08-8.75a15 15 0 0 0 -25.6-10.6l-21.21 21.21a15 15 0 1 0 21.21 21.21l21.21-21.21a14.953 14.953 0 0 0 4.39-10.61z" fill="#e48e66"/><path d="m176.85 335.15a15 15 0 0 1 0 21.21l-21.21 21.21a15 15 0 0 1 -21.21-21.21l21.21-21.21a14.992 14.992 0 0 1 21.21 0z" fill="#6fe3ff"/><path d="m153.96 427.86-37.41 37.41a20.008 20.008 0 0 1 -28.29 0l-41.53-41.53a20.008 20.008 0 0 1 0-28.29l37.41-37.41z" fill="#f8ec7d"/><g fill="#63316d"><path d="m42.488 427.982 41.53 41.53a26.043 26.043 0 0 0 36.774 0l140.361-140.36 95.583-34.364.321-.12a5.982 5.982 0 0 0 3.428-3.318l37.852-37.862a15.989 15.989 0 0 0 0-22.631l-117.755-117.757a15.893 15.893 0 0 0 -11.315-4.691h-.012a15.868 15.868 0 0 0 -11.3 4.69l-39.6 39.59a6 6 0 0 0 -1.757 4.243v.042l-33.753 93.875-140.36 140.361a26.041 26.041 0 0 0 .003 36.772zm115.012-134.818 61.336 61.336-64.877 64.875-61.334-61.334zm108.948-171.588a3.957 3.957 0 0 1 2.816-1.169 3.982 3.982 0 0 1 2.832 1.175l117.759 117.76a3.99 3.99 0 0 1 0 5.656l-35.347 35.356-123.422-123.423zm-74.166 136.806a6 6 0 0 0 1.405-2.212l31.649-88.02 118.515 118.515-88.021 31.648a6 6 0 0 0 -2.212 1.405l-26.3 26.3-61.334-61.338zm-141.308 141.31 33.167-33.167 61.334 61.335-33.165 33.164a14.03 14.03 0 0 1 -19.808 0l-41.529-41.524a14.027 14.027 0 0 1 .001-19.808z"/><path d="m428.462 83.538a6 6 0 0 0 -8.484 0l-46.36 46.362a6 6 0 1 0 8.485 8.485l46.359-46.36a6 6 0 0 0 0-8.487z"/><path d="m420.405 183.231a5.981 5.981 0 0 0 2.836-.715l50.73-27.271a6 6 0 1 0 -5.682-10.57l-50.729 27.27a6 6 0 0 0 2.845 11.286z"/><path d="m356.755 38.029-27.271 50.73a6 6 0 1 0 10.571 5.681l27.27-50.729a6 6 0 1 0 -10.57-5.682z"/><path d="m130.188 381.813a21.019 21.019 0 0 0 29.694 0l21.21-21.209a21 21 0 1 0 -29.7-29.695l-21.209 21.21a21 21 0 0 0 0 29.695zm8.484-21.21 21.21-21.21a9 9 0 0 1 12.725 12.725l-21.21 21.21a9 9 0 0 1 -12.725-12.728z"/></g></svg>